<svg aria-hidden="true" xmlns="http://www.w3.org/2000/svg" xmlns:xlink="http://www.w3.org/1999/xlink"><symbol viewBox="0 0 20 21" id="Fb" xmlns="http://www.w3.org/2000/svg">
<path d="M19.2 0.558594H0.8C0.3575 0.558594 0 0.916094 0 1.35859V19.7586C0 20.2011 0.3575 20.5586 0.8 20.5586H19.2C19.6425 20.5586 20 20.2011 20 19.7586V1.35859C20 0.916094 19.6425 0.558594 19.2 0.558594ZM16.89 6.39609H15.2925C14.04 6.39609 13.7975 6.99109 13.7975 7.86609V9.79359H16.7875L16.3975 12.8111H13.7975V20.5586H10.68V12.8136H8.0725V9.79359H10.68V7.56859C10.68 4.98609 12.2575 3.57859 14.5625 3.57859C15.6675 3.57859 16.615 3.66109 16.8925 3.69859V6.39609H16.89Z"/>
</symbol><symbol viewBox="0 0 20 21" id="Linkedin" xmlns="http://www.w3.org/2000/svg">
<path d="M19.2 0.558594H0.8C0.3575 0.558594 0 0.916094 0 1.35859V19.7586C0 20.2011 0.3575 20.5586 0.8 20.5586H19.2C19.6425 20.5586 20 20.2011 20 19.7586V1.35859C20 0.916094 19.6425 0.558594 19.2 0.558594ZM5.9325 17.6011H2.965V8.05609H5.9325V17.6011ZM4.45 6.75109C4.10982 6.75109 3.77727 6.65022 3.49442 6.46122C3.21157 6.27223 2.99111 6.0036 2.86093 5.68931C2.73074 5.37502 2.69668 5.02919 2.76305 4.69554C2.82942 4.36189 2.99323 4.05542 3.23378 3.81487C3.47432 3.57432 3.7808 3.41051 4.11444 3.34414C4.44809 3.27778 4.79393 3.31184 5.10822 3.44202C5.4225 3.5722 5.69113 3.79266 5.88013 4.07551C6.06912 4.35837 6.17 4.69091 6.17 5.03109C6.1675 5.98109 5.3975 6.75109 4.45 6.75109ZM17.0425 17.6011H14.0775V12.9586C14.0775 11.8511 14.0575 10.4286 12.535 10.4286C10.9925 10.4286 10.755 11.6336 10.755 12.8786V17.6011H7.7925V8.05609H10.6375V9.36109H10.6775C11.0725 8.61109 12.04 7.81859 13.485 7.81859C16.49 7.81859 17.0425 9.79609 17.0425 12.3661V17.6011Z"/>
</symbol><symbol viewBox="0 0 20 21" id="Twitter" xmlns="http://www.w3.org/2000/svg">
<path d="M1 0.558594C0.447715 0.558594 0 1.00631 0 1.55859V19.5586C0 20.1109 0.447715 20.5586 1 20.5586H19C19.5523 20.5586 20 20.1109 20 19.5586V1.55859C20 1.00631 19.5523 0.558594 19 0.558594H1ZM16.2477 7.35429C16.0934 7.48604 16 7.67671 16 7.87962V7.93359C16 12.0586 12.875 16.6836 7.25 16.6836C5.7681 16.6836 4.37583 16.3251 3.14909 15.6839C2.95545 15.5827 3.0315 15.3086 3.25 15.3086C3.79819 15.3086 4.31299 15.2418 4.8005 15.1144C5.63034 14.8974 5.36607 13.5283 4.81734 12.869C4.69317 12.7198 4.58323 12.5578 4.48938 12.3848C4.34084 12.111 4.5635 11.8086 4.875 11.8086C5.12106 11.8086 5.11844 11.5536 4.89602 11.4483C4.00934 11.0288 3.32851 10.1778 3.16344 9.16097C3.13061 8.95875 3.34304 8.81895 3.53479 8.89108C3.78098 8.9837 3.93666 8.63754 3.77205 8.43238C3.35356 7.91081 3.125 7.2347 3.125 6.55859C3.125 6.4901 3.1265 6.4231 3.1295 6.35761C3.1605 5.68152 3.9358 5.5989 4.445 6.04474C5.72349 7.16414 7.36923 7.88367 9.11594 8.11456C9.52709 8.16891 9.75 7.84832 9.75 7.43359C9.75 5.68359 11.125 4.30859 12.875 4.30859C13.6351 4.30859 14.3009 4.59158 14.8723 5.07562C15.0369 5.21504 15.2519 5.29023 15.4622 5.24214C15.8248 5.15923 16.1602 5.04412 16.4846 4.89683C16.7112 4.79395 16.9514 5.00243 16.8242 5.2163C16.7648 5.31614 16.7005 5.41223 16.6319 5.50416C16.4922 5.69127 16.7254 6.09611 16.9482 6.02621C17.139 5.96634 17.2967 6.1813 17.1831 6.34586C16.9171 6.73133 16.6052 7.04902 16.2477 7.35429Z"/>
</symbol></svg>